<svg height="512" viewBox="0 0 60 60" width="512" xmlns="http://www.w3.org/2000/svg"><g fill="#000" fill-rule="nonzero"><path d="M35 0a24.983 24.983 0 00-22.306 36.268l-1.284 1.278a3.976 3.976 0 00-.818 4.448l-9.059 9.059A5.243 5.243 0 005.245 60a5.2 5.2 0 003.7-1.531l9.067-9.069a3.933 3.933 0 004.447-.817l1.272-1.279A25 25 0 1035 0zM7.533 57.053a3.315 3.315 0 01-4.586-.01 3.242 3.242 0 010-4.576L11.81 43.6l4.59 4.59zm13.513-9.884a2.007 2.007 0 01-2.65.16 1.27 1.27 0 01-.189-.156l-5.381-5.381a1.513 1.513 0 01-.184-.229 1.991 1.991 0 01.183-2.6l.882-.877a25.189 25.189 0 008.211 8.211zM35 48c-12.703 0-23-10.297-23-23S22.297 2 35 2s23 10.297 23 23c-.014 12.697-10.303 22.986-23 23z"/><path d="M18.362 14.911a1 1 0 00.832-.444 18.93 18.93 0 0111.891-8.062 1 1 0 10-.411-1.957 20.914 20.914 0 00-13.142 8.907 1 1 0 00.83 1.556zM44.207 6.126H44.2l-.021-.011a.944.944 0 00-.2-.076 1 1 0 00-.908.232L15.587 31.25a1 1 0 00-.261 1.09l.009.022v.01A21 21 0 1044.207 6.126zm-.933 2.658A19.012 19.012 0 0125 33a18.788 18.788 0 01-6.93-1.3zM35 44a19.1 19.1 0 01-16.782-10.124A20.8 20.8 0 0025 35 20.943 20.943 0 0045.41 9.121 18.99 18.99 0 0135 44zM7.707 52.293a1 1 0 00-1.414 0l-2 2a1 1 0 101.414 1.414l2-2a1 1 0 000-1.414z"/><circle cx="41" cy="16" r="1"/><circle cx="36" cy="20" r="1"/><circle cx="35" cy="5" r="1"/><circle cx="28" cy="38" r="1"/><circle cx="49" cy="31" r="1"/><circle cx="44" cy="31" r="1"/><circle cx="29" cy="28" r="1"/><circle cx="49" cy="20" r="1"/><path d="M41.238 37a1 1 0 00-1.342.446A1 1 0 1139 36a1 1 0 000-2 3 3 0 102.684 4.343A1 1 0 0041.238 37z"/></g></svg>