<svg xmlns="http://www.w3.org/2000/svg" viewBox="0 0 512 512"><path d="M498.033 256.598A17.168 17.168 0 00512 239.79v-26.45c0-.186-.094-.341-.106-.524a8.315 8.315 0 00-.408-2.023 5.914 5.914 0 00-1.586-2.896c-.179-.212-.297-.464-.496-.657a8.446 8.446 0 00-2.537-1.724l-.06-.026-.037-.016-203.62-88.434a25.504 25.504 0 00-29.625 7.4 34.143 34.143 0 01-59.108-13.375 35.054 35.054 0 01-.808-12.983 24.946 24.946 0 00-14.825-26.3l-41.1-17.834a32.582 32.582 0 00-25.087-.475 213.353 213.353 0 00-84.459 59.917 218.181 218.181 0 00-46.825 93.133l-1.108 4.95c-.013.279-.012.559.004.837a8.014 8.014 0 00-.208 1.029v213.333c.02 18.843 15.29 34.113 34.133 34.133h231.254a17.11 17.11 0 0016.796-13.867c2.506-11.813 12.932-20.263 25.008-20.267 12.075-.004 22.508 8.439 25.021 20.25a17.116 17.116 0 0016.8 13.884h128.854c18.843-.02 34.113-15.29 34.133-34.133v-103.25a17.143 17.143 0 00-13.892-16.792c-11.791-2.52-20.224-12.929-20.242-24.986-.017-12.056 8.384-22.49 20.167-25.046zM61.087 124.507a196.29 196.29 0 0177.725-55.142 15.76 15.76 0 0112.075.233l41.108 17.842a8.008 8.008 0 014.679 8.492 52.17 52.17 0 001.184 19.275 51.215 51.215 0 0088.675 20.284 8.449 8.449 0 019.817-2.8l166.046 72.116h-443.1a200.865 200.865 0 0141.791-80.3zm433.846 198.916v103.25c-.011 9.421-7.645 17.056-17.067 17.067l-128.95-.3c-4.181-19.778-21.671-33.906-41.887-33.833s-37.604 14.325-41.643 34.133H34.133c-9.421-.011-17.056-7.646-17.067-17.067v-204.8h477.725l-.3 18.025c-19.739 4.249-33.798 21.751-33.691 41.942.107 20.191 14.351 37.543 34.133 41.583z"/><path d="M409.6 392.54c.02 18.843 15.29 34.113 34.133 34.133 18.851 0 34.133-15.282 34.133-34.133s-15.282-34.133-34.133-34.133c-18.851 0-34.133 15.282-34.133 34.133zm51.2 0c0 9.426-7.641 17.067-17.067 17.067s-17.067-7.641-17.067-17.067c.011-9.421 7.646-17.056 17.067-17.067 9.426 0 17.067 7.641 17.067 17.067zM196.267 281.607c-28.277 0-51.2 22.923-51.2 51.2.031 28.264 22.936 51.169 51.2 51.2 28.277 0 51.2-22.923 51.2-51.2s-22.923-51.2-51.2-51.2zm0 85.333c-18.851 0-34.133-15.282-34.133-34.133.02-18.843 15.29-34.113 34.133-34.133 18.851 0 34.133 15.282 34.133 34.133s-15.282 34.133-34.133 34.133zM324.267 247.473c-23.564 0-42.667 19.102-42.667 42.667.028 23.553 19.114 42.639 42.667 42.667 23.564 0 42.667-19.103 42.667-42.667s-19.103-42.667-42.667-42.667zm0 68.267c-14.138 0-25.6-11.461-25.6-25.6.015-14.132 11.468-25.585 25.6-25.6 14.138 0 25.6 11.461 25.6 25.6 0 14.139-11.462 25.6-25.6 25.6zM102.4 290.14c0-14.138-11.462-25.6-25.6-25.6s-25.6 11.461-25.6 25.6c.015 14.132 11.468 25.585 25.6 25.6 14.138 0 25.6-11.461 25.6-25.6zm-34.133 0a8.54 8.54 0 018.533-8.533 8.533 8.533 0 11-8.533 8.533zM93.867 366.94c-14.132.015-25.585 11.468-25.6 25.6 0 14.138 11.461 25.6 25.6 25.6 14.138 0 25.6-11.462 25.6-25.6s-11.462-25.6-25.6-25.6zm0 34.133a8.533 8.533 0 010-17.066 8.54 8.54 0 018.533 8.533 8.533 8.533 0 01-8.533 8.533zM304.725 369.415a8.933 8.933 0 00-12.117 0 9.804 9.804 0 00-1.796 2.817 8.071 8.071 0 000 6.483 7.716 7.716 0 004.608 4.608 8.04 8.04 0 006.487 0 9.862 9.862 0 002.817-1.792 8.753 8.753 0 002.475-6.057 7.161 7.161 0 00-.683-3.242 9.837 9.837 0 00-1.791-2.817zM213.333 264.54a8.444 8.444 0 007.85-11.775 8.845 8.845 0 00-1.792-2.817 8.522 8.522 0 00-9.304-1.792 7.951 7.951 0 00-2.813 1.792 9.804 9.804 0 00-1.796 2.817 8.453 8.453 0 007.855 11.775zM418.133 307.207a8.444 8.444 0 007.85-11.775 8.414 8.414 0 00-15.704 0 8.453 8.453 0 007.854 11.775z"/></svg>