<svg xmlns="http://www.w3.org/2000/svg" viewBox="0 0 480 480"><path d="M463.428 116.8v-8.296C463.358 48.608 414.82.071 354.924 0H171.772C66.836 0 17.604 84.8 16.972 142.848c-.192 2.6-.4 5.192-.4 7.84a110.08 110.08 0 0029.936 75.776L31.652 471.512a8 8 0 008 8.488h361.6a8 8 0 005.832-2.512 8.186 8.186 0 001.024-1.672l45.152-40a7.998 7.998 0 002.68-6.472l-14.888-245.6.256-.352a111.48 111.48 0 0022.12-66.592zM48.132 464l14.56-240.088a8 8 0 00-2.328-6.136 94.226 94.226 0 01-27.792-67.088c0-2.256.176-4.472.336-6.688 0-1 .128-2.064.16-3.08 5.049-47.021 44.709-82.688 92-82.736H308.22c51.066.057 92.45 41.438 92.512 92.504v8.32a95.438 95.438 0 01-18.984 56.928l-2.016 2.696a7.996 7.996 0 00-1.6 5.28L392.7 464H48.132zm376.696-282.304L439.684 426.4l-31.544 27.944-13.848-228.464.256-.352a111.511 111.511 0 0022.184-66.52v-8.32c-.07-59.899-48.613-108.438-108.512-108.504H125.076a107.72 107.72 0 00-54.904 15.072A136.583 136.583 0 01171.772 16h183.152c51.063.062 92.442 41.441 92.504 92.504v8.296a95.424 95.424 0 01-18.976 56.92l-2.024 2.696a8.007 8.007 0 00-1.6 5.28z"/><path d="M75.277 186.348L195.258 66.367l11.314 11.313L86.591 197.662zM43.278 138.343l64.001-64.001 11.314 11.313-64.001 64.001zM75.276 258.342l184-184 11.313 11.314-184 184zM75.278 346.341L339.276 82.343l11.314 11.313L86.59 357.655zM67.28 426.32l303.998-303.998 11.313 11.314L78.594 437.634zM139.37 442.232l215.992-207.985 11.092 11.519L150.462 453.75zM219.36 442.239l138.969-133.97 11.104 11.52-138.97 133.968zM307.28 442.332l55.997-55.997 11.314 11.314-55.997 55.996z"/></svg>